<?xml version="1.0" encoding="UTF-8"?>
<svg width="247px" height="57px" viewBox="0 0 247 57" version="1.1" xmlns="http://www.w3.org/2000/svg" xmlns:xlink="http://www.w3.org/1999/xlink">
    <!-- Generator: Sketch 41.2 (35397) - http://www.bohemiancoding.com/sketch -->
    <title>BabySitting</title>
    <desc>Created with Sketch.</desc>
    <defs></defs>
    <g id="Page-1" stroke="none" stroke-width="1" fill="none" fill-rule="evenodd">
        <path d="M7.728,16.848 L10.864,16.848 C11.9733389,16.848 12.9013296,16.4640038 13.648,15.696 C14.3946704,14.9279962 14.768,13.9893389 14.768,12.88 C14.768,11.813328 14.3946704,10.8960038 13.648,10.128 C12.9013296,9.35999616 11.9733389,8.976 10.864,8.976 L7.728,8.976 L7.728,16.848 Z M7.728,34.32 L13.808,34.32 C15.2586739,34.32 16.4639952,33.8506714 17.424,32.912 C18.3840048,31.9733286 18.864,30.7786739 18.864,29.328 C18.864,27.9626598 18.3840048,26.8000048 17.424,25.84 C16.4639952,24.8799952 15.2586739,24.4 13.808,24.4 L7.728,24.4 L7.728,34.32 Z M10.864,1.36 C12.4426746,1.36 13.935993,1.63733056 15.344,2.192 C16.752007,2.74666944 17.9786614,3.49332864 19.024,4.432 C20.0693386,5.37067136 20.8906637,6.46932704 21.488,7.728 C22.0853363,8.98667296 22.384,10.3413261 22.384,11.792 C22.384,13.2853408 22.1706688,14.6506605 21.744,15.888 C21.3173312,17.1253395 20.6346714,18.1279962 19.696,18.896 C20.9760064,19.4080026 22.053329,20.0693293 22.928,20.88 C23.802671,21.6906707 24.4959974,22.5653286 25.008,23.504 C25.5200026,24.4426714 25.8826656,25.4133283 26.096,26.416 C26.3093344,27.4186717 26.416,28.3679955 26.416,29.264 C26.416,31.056009 26.0853366,32.7199923 25.424,34.256 C24.7626634,35.7920077 23.8560058,37.1359942 22.704,38.288 C21.5519942,39.4400058 20.2080077,40.3466634 18.672,41.008 C17.1359923,41.6693366 15.5146752,42 13.808,42 L3.952,42 C2.84266112,42 1.92533696,41.637337 1.2,40.912 C0.47466304,40.186663 0.112,39.290672 0.112,38.224 L0.112,5.136 C0.112,4.069328 0.47466304,3.17333696 1.2,2.448 C1.92533696,1.72266304 2.84266112,1.36 3.952,1.36 L10.864,1.36 Z M41.62,21.072 C40.6386618,21.072 39.7426707,21.2639981 38.932,21.648 C38.1213293,22.0320019 37.4280029,22.5546634 36.852,23.216 C36.2759971,23.8773366 35.817335,24.645329 35.476,25.52 C35.134665,26.394671 34.964,27.3013286 34.964,28.24 C34.964,29.2213382 35.134665,30.1386624 35.476,30.992 C35.817335,31.8453376 36.2759971,32.5919968 36.852,33.232 C37.4280029,33.8720032 38.1213293,34.3839981 38.932,34.768 C39.7426707,35.1520019 40.6386618,35.344 41.62,35.344 C43.5826765,35.344 45.1826605,34.6506736 46.42,33.264 C47.6573395,31.8773264 48.276,30.2026765 48.276,28.24 C48.276,27.3013286 48.1160016,26.394671 47.796,25.52 C47.4759984,24.645329 47.0173363,23.8773366 46.42,23.216 C45.8226637,22.5546634 45.1186707,22.0320019 44.308,21.648 C43.4973293,21.2639981 42.6013382,21.072 41.62,21.072 Z M55.444,39.056 C55.444,40.0373382 55.081337,40.8799965 54.356,41.584 C53.630663,42.2880035 52.7986714,42.64 51.86,42.64 C50.067991,42.64 48.9800019,41.6800096 48.596,39.76 C47.7426624,40.8693389 46.6760064,41.6053315 45.396,41.968 C44.1159936,42.3306685 42.8573395,42.512 41.62,42.512 C39.6573235,42.512 37.8333418,42.1386704 36.148,41.392 C34.4626582,40.6453296 33.0013395,39.6320064 31.764,38.352 C30.5266605,37.0719936 29.5560035,35.5680086 28.852,33.84 C28.1479965,32.1119914 27.796,30.2453434 27.796,28.24 C27.796,26.1919898 28.1373299,24.3040086 28.82,22.576 C29.5026701,20.8479914 30.4413274,19.3440064 31.636,18.064 C32.8306726,16.7839936 34.227992,15.781337 35.828,15.056 C37.428008,14.330663 39.1666573,13.968 41.044,13.968 C42.6653414,13.968 44.1266602,14.1919978 45.428,14.64 C46.7293398,15.0880022 47.8066624,15.8239949 48.66,16.848 C48.9586682,15.8666618 49.3959971,15.1733354 49.972,14.768 C50.5480029,14.3626646 51.198663,14.16 51.924,14.16 C53.0333389,14.16 53.8973302,14.5119965 54.516,15.216 C55.1346698,15.9200035 55.444,16.805328 55.444,17.872 L55.444,39.056 Z M71.032,21.072 C70.0933286,21.072 69.2186707,21.2639981 68.408,21.648 C67.5973293,22.0320019 66.9040029,22.5546634 66.328,23.216 C65.7519971,23.8773366 65.293335,24.645329 64.952,25.52 C64.610665,26.394671 64.44,27.3013286 64.44,28.24 C64.44,29.2213382 64.610665,30.1386624 64.952,30.992 C65.293335,31.8453376 65.7519971,32.5919968 66.328,33.232 C66.9040029,33.8720032 67.5973293,34.3839981 68.408,34.768 C69.2186707,35.1520019 70.0933286,35.344 71.032,35.344 C71.9706714,35.344 72.8559958,35.1520019 73.688,34.768 C74.5200042,34.3839981 75.2346637,33.8720032 75.832,33.232 C76.4293363,32.5919968 76.898665,31.8453376 77.24,30.992 C77.581335,30.1386624 77.752,29.2213382 77.752,28.24 C77.752,27.3013286 77.581335,26.394671 77.24,25.52 C76.898665,24.645329 76.4293363,23.8773366 75.832,23.216 C75.2346637,22.5546634 74.5200042,22.0320019 73.688,21.648 C72.8559958,21.2639981 71.9706714,21.072 71.032,21.072 Z M64.44,16.72 C65.3360045,15.6959949 66.4666598,14.9813354 67.832,14.576 C69.1973402,14.1706646 70.4986605,13.968 71.736,13.968 C73.528009,13.968 75.2346586,14.330663 76.856,15.056 C78.4773414,15.781337 79.8853274,16.7839936 81.08,18.064 C82.2746726,19.3440064 83.2239965,20.8479914 83.928,22.576 C84.6320035,24.3040086 84.984,26.1919898 84.984,28.24 C84.984,30.2453434 84.6320035,32.1119914 83.928,33.84 C83.2239965,35.5680086 82.2746726,37.0719936 81.08,38.352 C79.8853274,39.6320064 78.4773414,40.6453296 76.856,41.392 C75.2346586,42.1386704 73.528009,42.512 71.736,42.512 C70.1999923,42.512 68.7493402,42.3306685 67.384,41.968 C66.0186598,41.6053315 64.9520038,40.8693389 64.184,39.76 C63.7999981,41.6800096 62.6906758,42.64 60.856,42.64 C59.6186605,42.64 58.7120029,42.2880035 58.136,41.584 C57.5599971,40.8799965 57.272,40.0373382 57.272,39.056 L57.272,4.176 C57.272,3.19466176 57.6026634,2.35200352 58.264,1.648 C58.9253366,0.94399648 59.789328,0.592 60.856,0.592 C61.8373382,0.592 62.6799965,0.94399648 63.384,1.648 C64.0880035,2.35200352 64.44,3.19466176 64.44,4.176 L64.44,16.72 Z M98.396,30.096 L104.156,16.912 C104.497335,16.1439962 104.955997,15.6000016 105.532,15.28 C106.108003,14.9599984 106.715997,14.8 107.356,14.8 C108.294671,14.8 109.126663,15.1306634 109.852,15.792 C110.577337,16.4533366 110.94,17.317328 110.94,18.384 C110.94,18.8106688 110.876001,19.2373312 110.748,19.664 L94.684,54.928 C94.342665,55.653337 93.905336,56.1439987 93.372,56.4 C92.838664,56.6560013 92.2733363,56.784 91.676,56.784 C90.6946618,56.784 89.841337,56.4960029 89.116,55.92 C88.390663,55.3439971 88.028,54.5013389 88.028,53.392 C88.028,53.050665 88.0493331,52.7520013 88.092,52.496 C88.1346669,52.2399987 88.2413325,51.9626682 88.412,51.664 L94.364,38.096 L85.852,20.048 C85.6386656,19.4079968 85.532,18.8746688 85.532,18.448 C85.532,17.3386611 85.9159962,16.4533366 86.684,15.792 C87.4520038,15.1306634 88.2626624,14.8 89.116,14.8 C90.4813402,14.8 91.4839968,15.4613267 92.124,16.784 L98.396,30.096 Z M113.472,10.896 C113.472,9.14665792 113.802663,7.62133984 114.464,6.32 C115.125337,5.01866016 115.978661,3.93067104 117.024,3.056 C118.069339,2.18132896 119.24266,1.5306688 120.544,1.104 C121.84534,0.6773312 123.157327,0.464 124.48,0.464 C125.760006,0.464 127.05066,0.68799776 128.352,1.136 C129.65334,1.58400224 130.815995,2.22399584 131.84,3.056 C132.864005,3.88800416 133.695997,4.87999424 134.336,6.032 C134.976003,7.18400576 135.296,8.46399296 135.296,9.872 C135.296,10.9813389 134.92267,11.9306627 134.176,12.72 C133.42933,13.5093373 132.522672,13.904 131.456,13.904 C130.474662,13.904 129.64267,13.6266694 128.96,13.072 C128.27733,12.5173306 127.872001,11.6213395 127.744,10.384 C127.658666,9.61599616 127.253337,9.04000192 126.528,8.656 C125.802663,8.27199808 125.09867,8.08 124.416,8.08 C123.349328,8.08 122.549336,8.35733056 122.016,8.912 C121.482664,9.46666944 121.216,10.1279962 121.216,10.896 C121.216,11.8773382 121.450664,12.6986634 121.92,13.36 C122.389336,14.0213366 122.986663,14.5973309 123.712,15.088 C124.437337,15.5786691 125.226662,16.0266646 126.08,16.432 C126.933338,16.8373354 127.722663,17.2533312 128.448,17.68 C129.642673,18.405337 130.762661,19.2159955 131.808,20.112 C132.853339,21.0080045 133.759996,21.989328 134.528,23.056 C135.296004,24.122672 135.903998,25.2639939 136.352,26.48 C136.800002,27.6960061 137.024,29.007993 137.024,30.416 C137.024,32.4640102 136.65067,34.2559923 135.904,35.792 C135.15733,37.3280077 134.186673,38.6079949 132.992,39.632 C131.797327,40.6560051 130.453341,41.4239974 128.96,41.936 C127.466659,42.4480026 125.952008,42.704 124.416,42.704 C122.623991,42.704 120.928008,42.3840032 119.328,41.744 C117.727992,41.1039968 116.330673,40.2720051 115.136,39.248 C113.941327,38.2239949 112.992004,37.0720064 112.288,35.792 C111.583996,34.5119936 111.232,33.2320064 111.232,31.952 C111.232,30.7146605 111.615996,29.7653366 112.384,29.104 C113.152004,28.4426634 114.026662,28.112 115.008,28.112 C115.861338,28.112 116.639996,28.3466643 117.344,28.816 C118.048004,29.2853357 118.506666,30.053328 118.72,31.12 C118.933334,32.3573395 119.573328,33.3279965 120.64,34.032 C121.706672,34.7360035 122.965326,35.088 124.416,35.088 C125.65334,35.088 126.783995,34.7146704 127.808,33.968 C128.832005,33.2213296 129.344,32.0800077 129.344,30.544 C129.344,29.3066605 129.066669,28.2933373 128.512,27.504 C127.957331,26.7146627 127.242671,26.0213363 126.368,25.424 C125.493329,24.8266637 124.544005,24.2826691 123.52,23.792 C122.495995,23.3013309 121.536004,22.7573363 120.64,22.16 C119.743996,21.5626637 118.869338,20.8693373 118.016,20.08 C117.162662,19.2906627 116.39467,18.4160048 115.712,17.456 C115.02933,16.4959952 114.485335,15.4720054 114.08,14.384 C113.674665,13.2959946 113.472,12.1333395 113.472,10.896 Z M143.012,4.176 C143.993338,4.176 144.921329,4.5493296 145.796,5.296 C146.670671,6.0426704 147.108,7.0559936 147.108,8.336 C147.108,9.70134016 146.670671,10.7359965 145.796,11.44 C144.921329,12.1440035 143.993338,12.496 143.012,12.496 C141.77466,12.496 140.78267,12.1440035 140.036,11.44 C139.28933,10.7359965 138.916,9.70134016 138.916,8.336 C138.916,7.0559936 139.28933,6.0426704 140.036,5.296 C140.78267,4.5493296 141.77466,4.176 143.012,4.176 Z M146.532,38.544 C146.532,40.8480115 145.316012,42 142.884,42 C140.494655,42 139.3,40.8480115 139.3,38.544 L139.3,18.448 C139.3,16.0159878 140.473322,14.8 142.82,14.8 C145.294679,14.8 146.532,16.0159878 146.532,18.448 L146.532,38.544 Z M151.944,14.8 L151.944,10.96 C151.944,8.57065472 153.117322,7.376 155.464,7.376 C157.896012,7.376 159.112,8.57065472 159.112,10.96 L159.112,14.8 L160.776,14.8 C161.970673,14.8 162.855997,15.0986637 163.432,15.696 C164.008003,16.2933363 164.296,16.954663 164.296,17.68 C164.296,18.405337 164.008003,19.0559971 163.432,19.632 C162.855997,20.2080029 161.970673,20.496 160.776,20.496 L159.112,20.496 L159.112,38.544 C159.112,40.8480115 157.896012,42 155.464,42 C153.117322,42 151.944,40.8480115 151.944,38.544 L151.944,20.496 L150.536,20.496 C149.426661,20.496 148.605336,20.2080029 148.072,19.632 C147.538664,19.0559971 147.272,18.405337 147.272,17.68 C147.272,16.954663 147.538664,16.2933363 148.072,15.696 C148.605336,15.0986637 149.426661,14.8 150.536,14.8 L151.944,14.8 Z M167.98,14.8 L167.98,10.96 C167.98,8.57065472 169.153322,7.376 171.5,7.376 C173.932012,7.376 175.148,8.57065472 175.148,10.96 L175.148,14.8 L176.812,14.8 C178.006673,14.8 178.891997,15.0986637 179.468,15.696 C180.044003,16.2933363 180.332,16.954663 180.332,17.68 C180.332,18.405337 180.044003,19.0559971 179.468,19.632 C178.891997,20.2080029 178.006673,20.496 176.812,20.496 L175.148,20.496 L175.148,38.544 C175.148,40.8480115 173.932012,42 171.5,42 C169.153322,42 167.98,40.8480115 167.98,38.544 L167.98,20.496 L166.572,20.496 C165.462661,20.496 164.641336,20.2080029 164.108,19.632 C163.574664,19.0559971 163.308,18.405337 163.308,17.68 C163.308,16.954663 163.574664,16.2933363 164.108,15.696 C164.641336,15.0986637 165.462661,14.8 166.572,14.8 L167.98,14.8 Z M185.04,4.176 C186.021338,4.176 186.949329,4.5493296 187.824,5.296 C188.698671,6.0426704 189.136,7.0559936 189.136,8.336 C189.136,9.70134016 188.698671,10.7359965 187.824,11.44 C186.949329,12.1440035 186.021338,12.496 185.04,12.496 C183.80266,12.496 182.81067,12.1440035 182.064,11.44 C181.31733,10.7359965 180.944,9.70134016 180.944,8.336 C180.944,7.0559936 181.31733,6.0426704 182.064,5.296 C182.81067,4.5493296 183.80266,4.176 185.04,4.176 Z M188.56,38.544 C188.56,40.8480115 187.344012,42 184.912,42 C182.522655,42 181.328,40.8480115 181.328,38.544 L181.328,18.448 C181.328,16.0159878 182.501322,14.8 184.848,14.8 C187.322679,14.8 188.56,16.0159878 188.56,18.448 L188.56,38.544 Z M198.516,38.48 C198.516,40.8266784 197.300012,42 194.868,42 C192.563988,42 191.412,40.8266784 191.412,38.48 L191.412,18.384 C191.412,15.9946547 192.563988,14.8 194.868,14.8 C195.593337,14.8 196.190664,14.9919981 196.66,15.376 C197.129336,15.7600019 197.534665,16.122665 197.876,16.464 C199.284007,14.7999917 201.609317,13.968 204.852,13.968 C206.601342,13.968 208.211993,14.2773302 209.684,14.896 C211.156007,15.5146698 212.414661,16.4106608 213.46,17.584 C214.505339,18.7573392 215.315997,20.1866582 215.892,21.872 C216.468003,23.5573418 216.756,25.466656 216.756,27.6 L216.756,38.48 C216.756,40.8266784 215.540012,42 213.108,42 C210.761322,42 209.588,40.8266784 209.588,38.48 L209.588,26.64 C209.588,25.8719962 209.438668,25.1573366 209.14,24.496 C208.841332,23.8346634 208.436003,23.2480026 207.924,22.736 C207.411997,22.2239974 206.81467,21.8186682 206.132,21.52 C205.44933,21.2213318 204.724004,21.072 203.956,21.072 C203.187996,21.072 202.473337,21.2213318 201.812,21.52 C201.150663,21.8186682 200.574669,22.2239974 200.084,22.736 C199.593331,23.2480026 199.209335,23.8346634 198.932,24.496 C198.654665,25.1573366 198.516,25.8719962 198.516,26.64 L198.516,38.48 Z M232.728,21.072 C231.746662,21.072 230.850671,21.2639981 230.04,21.648 C229.229329,22.0320019 228.536003,22.5546634 227.96,23.216 C227.383997,23.8773366 226.925335,24.645329 226.584,25.52 C226.242665,26.394671 226.072,27.3013286 226.072,28.24 C226.072,29.2213382 226.242665,30.1386624 226.584,30.992 C226.925335,31.8453376 227.383997,32.5919968 227.96,33.232 C228.536003,33.8720032 229.229329,34.3839981 230.04,34.768 C230.850671,35.1520019 231.746662,35.344 232.728,35.344 C234.690676,35.344 236.29066,34.6506736 237.528,33.264 C238.76534,31.8773264 239.384,30.2026765 239.384,28.24 C239.384,27.3013286 239.224002,26.394671 238.904,25.52 C238.583998,24.645329 238.125336,23.8773366 237.528,23.216 C236.930664,22.5546634 236.226671,22.0320019 235.416,21.648 C234.605329,21.2639981 233.709338,21.072 232.728,21.072 Z M246.616,42.512 C246.616,44.5173434 246.253337,46.3839914 245.528,48.112 C244.802663,49.8400086 243.800006,51.3439936 242.52,52.624 C241.239994,53.9040064 239.725342,54.9173296 237.976,55.664 C236.226658,56.4106704 234.32801,56.784 232.28,56.784 C231.170661,56.784 229.944007,56.6346682 228.6,56.336 C227.255993,56.0373318 226.008006,55.5893363 224.856,54.992 C223.703994,54.3946637 222.744004,53.6693376 221.976,52.816 C221.207996,51.9626624 220.824,50.9813389 220.824,49.872 C220.824,48.8906618 221.111997,48.0480035 221.688,47.344 C222.264003,46.6399965 223.213327,46.288 224.536,46.288 C225.261337,46.288 225.869331,46.4693315 226.36,46.832 C226.850669,47.1946685 227.351997,47.5893312 227.864,48.016 C228.376003,48.4426688 228.962663,48.8373315 229.624,49.2 C230.285337,49.5626685 231.170661,49.744 232.28,49.744 C233.218671,49.744 234.125329,49.5626685 235,49.2 C235.874671,48.8373315 236.631997,48.3360032 237.272,47.696 C237.912003,47.0559968 238.423998,46.2880045 238.808,45.392 C239.192002,44.4959955 239.384,43.5360051 239.384,42.512 L239.384,39.696 C238.658663,40.4640038 237.709339,41.0933309 236.536,41.584 C235.362661,42.0746691 233.880009,42.32 232.088,42.32 C230.295991,42.32 228.600008,41.957337 227,41.232 C225.399992,40.506663 224.002673,39.514673 222.808,38.256 C221.613327,36.997327 220.664004,35.5146752 219.96,33.808 C219.255996,32.1013248 218.904,30.2453434 218.904,28.24 C218.904,26.1919898 219.255996,24.3040086 219.96,22.576 C220.664004,20.8479914 221.613327,19.3440064 222.808,18.064 C224.002673,16.7839936 225.399992,15.781337 227,15.056 C228.600008,14.330663 230.295991,13.968 232.088,13.968 C233.709341,13.968 235.159994,14.1706646 236.44,14.576 C237.720006,14.9813354 238.850662,15.7386611 239.832,16.848 C240.344003,15.4826598 241.410659,14.8 243.032,14.8 C245.421345,14.8 246.616,15.9519885 246.616,18.256 L246.616,42.512 Z" id="BabySitting" fill="#FFFFFF"></path>
    </g>
</svg>